HIERARCHY
ROOT Hips
{
	OFFSET 0.000000 0.000000 0.000000
	CHANNELS 6 Xposition Yposition Zposition Zrotation Yrotation Xrotation 
	JOINT LHipJoint
	{
		OFFSET 0.000000 0.000000 0.000000
		CHANNELS 3 Zrotation Yrotation Xrotation
		JOINT LeftUpLeg
		{
			OFFSET 1.363060 -1.794630 0.839290
			CHANNELS 3 Zrotation Yrotation Xrotation
			JOINT LeftLeg
			{
				OFFSET 2.448110 -6.726130 0.000000
				CHANNELS 3 Zrotation Yrotation Xrotation
				JOINT LeftFoot
				{
					OFFSET 2.562200 -7.039590 0.000000
					CHANNELS 3 Zrotation Yrotation Xrotation
					JOINT LeftToeBase
					{
						OFFSET 0.157640 -0.433110 2.322550
						CHANNELS 3 Zrotation Yrotation Xrotation
						End Site
						{
							OFFSET 0.000000 0.000000 0.000000
						}
					}
				}
			}
		}
	}
	JOINT RHipJoint
	{
		OFFSET 0.000000 0.000000 0.000000
		CHANNELS 3 Zrotation Yrotation Xrotation
		JOINT RightUpLeg
		{
			OFFSET -1.305520 -1.794630 0.839290
			CHANNELS 3 Zrotation Yrotation Xrotation
			JOINT RightLeg
			{
				OFFSET -2.542530 -6.985550 0.000000
				CHANNELS 3 Zrotation Yrotation Xrotation
				JOINT RightFoot
				{
					OFFSET -2.568260 -7.056230 0.000000
					CHANNELS 3 Zrotation Yrotation Xrotation
					JOINT RightToeBase
					{
						OFFSET -0.164730 -0.452590 2.363150
						CHANNELS 3 Zrotation Yrotation Xrotation
						End Site
						{
							OFFSET 0.000000 0.000000 0.000000
						}
					}
				}
			}
		}
	}
	JOINT LowerBack
	{
		OFFSET 0.000000 0.000000 0.000000
		CHANNELS 3 Zrotation Yrotation Xrotation
		JOINT Spine
		{
			OFFSET 0.028270 2.035590 -0.193380
			CHANNELS 3 Zrotation Yrotation Xrotation
			JOINT Spine1
			{
				OFFSET 0.056720 2.048850 -0.042750
				CHANNELS 3 Zrotation Yrotation Xrotation
				JOINT Neck
				{
					OFFSET 0.000000 0.000000 0.000000
					CHANNELS 3 Zrotation Yrotation Xrotation
					JOINT Neck1
					{
						OFFSET -0.054170 1.746240 0.172020
						CHANNELS 3 Zrotation Yrotation Xrotation
						JOINT Head
						{
							OFFSET 0.104070 1.761360 -0.123970
							CHANNELS 3 Zrotation Yrotation Xrotation
							End Site
							{
								OFFSET 0.000000 0.000000 0.000000
							}
						}
					}
				}
				JOINT LeftShoulder
				{
					OFFSET 0.000000 0.000000 0.000000
					CHANNELS 3 Zrotation Yrotation Xrotation
					JOINT LeftArm
					{
						OFFSET 3.362410 1.200890 -0.311210
						CHANNELS 3 Zrotation Yrotation Xrotation
						JOINT LeftForeArm
						{
							OFFSET 4.983000 -0.000000 -0.000000
							CHANNELS 3 Zrotation Yrotation Xrotation
							JOINT LeftHand
							{
								OFFSET 3.483560 -0.000000 -0.000000
								CHANNELS 3 Zrotation Yrotation Xrotation
								JOINT LeftFingerBase
								{
									OFFSET 0.000000 0.000000 0.000000
									CHANNELS 3 Zrotation Yrotation Xrotation
									JOINT LeftHandIndex1
									{
										OFFSET 0.715260 -0.000000 -0.000000
										CHANNELS 3 Zrotation Yrotation Xrotation
										End Site
										{
											OFFSET 0.000000 0.000000 0.000000
										}
									}
								}
								JOINT LThumb
								{
									OFFSET 0.000000 0.000000 0.000000
									CHANNELS 3 Zrotation Yrotation Xrotation
									End Site
									{
										OFFSET 0.000000 0.000000 0.000000
									}
								}
							}
						}
					}
				}
				JOINT RightShoulder
				{
					OFFSET 0.000000 0.000000 0.000000
					CHANNELS 3 Zrotation Yrotation Xrotation
					JOINT RightArm
					{
						OFFSET -3.136600 1.374050 -0.404650
						CHANNELS 3 Zrotation Yrotation Xrotation
						JOINT RightForeArm
						{
							OFFSET -5.241900 -0.000000 -0.000000
							CHANNELS 3 Zrotation Yrotation Xrotation
							JOINT RightHand
							{
								OFFSET -3.444170 -0.000000 -0.000000
								CHANNELS 3 Zrotation Yrotation Xrotation
								JOINT RightFingerBase
								{
									OFFSET 0.000000 0.000000 0.000000
									CHANNELS 3 Zrotation Yrotation Xrotation
									JOINT RightHandIndex1
									{
										OFFSET -0.622530 -0.000000 -0.000000
										CHANNELS 3 Zrotation Yrotation Xrotation
										End Site
										{
											OFFSET 0.000000 0.000000 0.000000
										}
									}
								}
								JOINT RThumb
								{
									OFFSET 0.000000 0.000000 0.000000
									CHANNELS 3 Zrotation Yrotation Xrotation
									End Site
									{
										OFFSET 0.000000 0.000000 0.000000
									}
								}
							}
						}
					}
				}
			}
		}
	}
}
MOTION
Frames: 8
Frame Time: 0.008333
9.445880 17.863278 34.405209 -179.961737 -1.620887 -152.406435 9.128150 1.239490 -1.881943 -23.978358 -18.229695 -19.883664 -1.314507 4.731398 10.027957 0.663628 -1.695013 -16.985165 5.497200 -13.922800 -42.928900 -13.642849 -2.871628 -1.466129 32.346329 17.649764 -18.380022 1.538868 -4.157461 8.768727 -1.139010 -5.705903 -23.633255 -4.070400 12.253400 -36.634500 -3.541326 0.359806 -25.976382 1.726271 -0.287973 -5.430750 0.567299 -1.286494 13.552539 -10.158396 -3.716316 -5.473548 9.074451 -9.009703 33.186902 0.968100 -3.751300 8.849200 15.323415 -0.104666 0.897647 -105.002701 -0.661473 -5.797919 7.725767 -7.402499 -0.538903 -1.141237 1.674047 26.983022 18.287529 -8.022623 -3.257900 -7.125000 0.000000 0.000000 -4.920200 20.460800 2.900400 -10.381500 0.013734 0.191193 98.338173 -5.091833 -7.783277 -10.115777 19.168303 -2.261367 1.316481 4.022525 8.724939 -13.797360 -48.485389 11.608000 7.125000 0.000000 0.000000 64.048700 -76.566100 -51.083900 
9.446428 17.859991 34.400060 -179.923392 -1.523184 -152.266562 9.135279 1.225586 -1.895267 -23.903587 -18.224799 -20.001724 -1.322051 4.734611 10.009895 0.679615 -1.596982 -17.057027 5.417300 -13.838900 -42.595800 -13.645966 -2.856122 -1.450535 32.307077 17.775231 -18.539720 1.538583 -4.181435 8.774590 -1.145354 -5.589804 -23.671663 -4.030200 12.200500 -36.444800 -3.522582 0.402742 -26.178298 1.706718 -0.236383 -5.419638 0.524465 -1.271332 13.679013 -10.166466 -3.655754 -5.714597 9.192509 -8.939208 33.331789 1.018600 -3.698700 8.960700 15.300086 -0.051992 0.911572 -104.990096 -0.495436 -7.739289 7.573205 -7.266362 -0.512098 -1.071448 1.709293 29.046645 18.140670 -7.871666 -3.177200 -7.125000 0.000000 0.000000 -5.031900 20.628300 2.947700 -10.368090 -0.022853 0.202347 98.440674 -5.168871 -8.608244 -9.902945 18.841224 -2.169059 1.332348 4.010120 9.240424 -13.537285 -48.327434 11.357800 7.125000 0.000000 0.000000 63.553300 -76.406300 -50.467900 
9.448400 17.860211 34.397540 -179.944186 -1.543499 -152.240894 9.138806 1.224273 -1.896942 -23.907889 -18.234647 -20.015088 -1.321328 4.732036 9.998839 0.674280 -1.616133 -17.021072 5.257800 -13.668400 -41.925000 -13.642965 -2.849532 -1.449178 32.260643 17.828604 -18.515271 1.539426 -4.163703 8.730109 -1.156795 -5.527900 -23.754216 -3.965300 12.114000 -36.136600 -3.563540 0.380730 -26.197466 1.693432 -0.239845 -5.411156 0.509684 -1.276015 13.729473 -10.114964 -3.604465 -5.845695 9.255943 -8.879504 33.403367 1.035400 -3.652900 9.016200 15.287437 -0.004261 0.923261 -104.939239 -0.303027 -9.065264 7.436258 -7.127635 -0.491181 -1.020808 1.770376 30.478917 18.164440 -8.030170 -3.251800 -7.125000 0.000000 0.000000 -5.007900 20.423400 2.956800 -10.348825 -0.051987 0.217335 98.548287 -5.155292 -9.653551 -9.640683 18.423430 -2.057753 1.372383 3.988076 10.111505 -13.253967 -48.133733 11.084201 7.125000 0.000000 0.000000 62.941300 -76.223200 -49.724400 
9.446866 17.860539 34.396006 -179.924318 -1.555428 -152.211669 9.145028 1.219165 -1.900293 -23.874819 -18.290078 -20.016009 -1.322973 4.727593 9.982089 0.675821 -1.597357 -17.018512 5.240300 -13.649400 -41.850700 -13.646772 -2.844111 -1.444779 32.267839 17.910324 -18.490330 1.545169 -4.148416 8.683505 -1.149212 -5.632967 -23.735854 -3.953600 12.098400 -36.080900 -3.550756 0.386389 -26.205748 1.680067 -0.230434 -5.402869 0.476898 -1.268397 13.754138 -9.868073 -3.681354 -5.637880 9.039474 -8.951906 33.276027 0.899300 -3.687000 8.890000 15.291732 0.032237 0.936706 -104.783337 -0.076942 -9.124500 7.289605 -6.896054 -0.466060 -1.016004 1.808394 30.564015 18.198643 -8.244354 -3.348600 -7.125000 0.000000 0.000000 -4.973200 20.161100 2.965500 -10.321843 -0.086130 0.232091 98.626041 -5.122963 -10.506586 -9.391292 18.019686 -1.950135 1.362736 3.986221 10.789977 -12.436532 -48.147879 10.382300 7.125000 0.000000 0.000000 63.496200 -75.894300 -49.875900 
9.445442 17.861525 34.392390 -179.902152 -1.587034 -152.197529 9.146538 1.217684 -1.900545 -23.848176 -18.322882 -19.983756 -1.325798 4.712067 9.945526 0.680228 -1.583108 -17.049662 5.358900 -13.776900 -42.351200 -13.648594 -2.844454 -1.442967 32.304502 17.948745 -18.416775 1.552217 -4.108801 8.588966 -1.143922 -5.731152 -23.727401 -3.985800 12.141500 -36.234300 -3.540585 0.371194 -26.216978 1.678189 -0.252993 -5.400740 0.477076 -1.275794 13.782337 -9.914835 -3.535865 -5.765411 9.328178 -8.810430 33.215098 1.022500 -3.591700 8.910100 15.277006 0.051131 0.951536 -104.569490 0.041706 -9.201148 7.028163 -6.467982 -0.420967 -1.018825 1.837700 30.529568 18.157711 -8.325298 -3.381800 -7.125000 0.000000 0.000000 -4.991500 20.051600 2.988800 -10.308374 -0.119651 0.237163 98.675239 -5.187446 -10.949647 -9.222652 17.740988 -1.870624 1.269347 3.977982 10.876438 -11.022645 -47.786360 9.123400 7.125000 0.000000 0.000000 62.938000 -75.185100 -48.621900 
9.450482 17.862292 34.384611 -179.896088 -1.682430 -152.249731 9.138644 1.224586 -1.892996 -23.800945 -18.399797 -19.814843 -1.330250 4.665431 9.852729 0.686136 -1.578098 -17.097690 5.325300 -13.741000 -42.209700 -13.651839 -2.844432 -1.445640 32.381576 18.018233 -18.209458 1.562276 -4.055688 8.491813 -1.150745 -5.884746 -23.849105 -3.971400 12.122200 -36.165800 -3.587190 0.305177 -26.170987 1.700231 -0.324047 -5.401503 0.514014 -1.313917 13.785280 -9.627524 -3.710449 -5.637117 8.853089 -8.908752 33.181842 0.786700 -3.653100 8.832200 15.272799 0.096310 0.965352 -104.477824 0.103562 -9.266113 6.749793 -5.998824 -0.374892 -1.052364 1.864154 30.505196 18.291496 -8.229025 -3.381500 -7.125000 0.000000 0.000000 -4.864800 20.135200 2.903200 -10.277461 -0.119029 0.242130 98.700725 -5.417847 -11.056949 -9.142255 17.619362 -1.832569 1.232714 3.984773 10.768431 -10.647527 -47.704782 8.791600 7.125000 0.000000 0.000000 62.887800 -75.002900 -48.382400 
9.443798 17.861854 34.386474 -179.808620 -1.591701 -152.090460 9.148951 1.199934 -1.894933 -23.648577 -18.609819 -19.962177 -1.341396 4.695761 9.880437 0.717860 -1.362806 -17.216573 5.185800 -13.590000 -41.619200 -13.656190 -2.832598 -1.431681 32.381100 18.015885 -18.569923 1.551167 -4.161643 8.678672 -1.152161 -5.660045 -23.799855 -3.967900 12.117600 -36.149400 -3.429783 0.416765 -26.242125 1.683360 -0.250102 -5.428396 0.403164 -1.275233 13.714115 -9.595021 -3.696771 -5.734479 8.865155 -8.875352 33.191979 0.790700 -3.630100 8.868400 15.254843 0.118283 0.967856 -104.453522 0.106358 -9.259810 6.502635 -5.571208 -0.338244 -1.085146 1.913073 30.577022 18.538593 -8.260196 -3.455900 -7.125000 0.000000 0.000000 -4.649400 20.059000 2.781700 -10.281905 -0.130597 0.242002 98.775884 -5.720123 -11.237807 -9.089812 17.572399 -1.821114 1.314008 4.003652 10.934990 -11.685974 -48.163784 9.734200 7.125000 0.000000 0.000000 64.047200 -75.595100 -50.052200 
9.441607 17.862730 34.386803 -179.779162 -1.535054 -151.945106 9.156337 1.184861 -1.911032 -23.611849 -18.460258 -20.252697 -1.331388 4.765202 10.018126 0.695992 -1.511071 -17.184899 5.111400 -13.508200 -41.301800 -13.662658 -2.821007 -1.414173 32.341522 18.081355 -18.818232 1.547668 -4.224547 8.772637 -1.144037 -5.602022 -23.732333 -3.992500 12.150400 -36.266300 -3.393412 0.471791 -26.335205 1.677790 -0.204589 -5.441809 0.374683 -1.256048 13.701820 -9.497315 -3.754691 -5.705572 8.756830 -8.919050 33.155169 0.725800 -3.649400 8.839300 15.248610 0.150967 0.964038 -104.580982 0.247981 -9.299884 6.502916 -5.559302 -0.334540 -1.104249 1.885762 30.749213 18.546794 -7.957628 -3.333500 -7.125000 0.000000 0.000000 -4.635700 20.418800 2.736000 -10.269139 -0.150554 0.249644 98.807597 -5.839938 -11.825122 -8.964326 17.384547 -1.781045 1.437314 3.978782 11.601898 -12.820938 -48.076739 10.697300 7.125000 0.000000 0.000000 63.076600 -76.029600 -49.642200 
